<svg width="50" height="50" fill="none" xmlns="http://www.w3.org/2000/svg"><path d="M29.167 16.667h2.083a2.083 2.083 0 100-4.167h-2.083a2.084 2.084 0 000 4.167zm0 8.333h2.083a2.083 2.083 0 100-4.167h-2.083a2.084 2.084 0 000 4.167zM18.75 16.667h2.083a2.083 2.083 0 100-4.167H18.75a2.083 2.083 0 000 4.167zm0 8.333h2.083a2.083 2.083 0 000-4.167H18.75a2.083 2.083 0 000 4.167zm25 16.667h-2.083V6.25a2.083 2.083 0 00-2.084-2.083H10.417A2.083 2.083 0 008.333 6.25v35.417H6.25a2.083 2.083 0 000 4.166h37.5a2.083 2.083 0 100-4.166zm-16.667 0h-4.166v-8.334h4.166v8.334zm10.417 0h-6.25V31.25a2.083 2.083 0 00-2.083-2.083h-8.334a2.083 2.083 0 00-2.083 2.083v10.417H12.5V8.333h25v33.334z" fill="#158F44"/></svg>