<svg width="50" height="50" fill="none" xmlns="http://www.w3.org/2000/svg"><path d="M25 14.583a2.083 2.083 0 00-2.083 2.084V25a2.083 2.083 0 004.166 0v-8.333A2.083 2.083 0 0025 14.583zm1.917 17.959a1.584 1.584 0 00-.188-.375l-.25-.313a2.083 2.083 0 00-2.27-.437 2.398 2.398 0 00-.688.437 2.084 2.084 0 00-.604 1.48c.003.272.06.54.166.791a1.876 1.876 0 001.125 1.125 1.959 1.959 0 001.584 0 1.875 1.875 0 001.125-1.125c.106-.25.163-.52.166-.792.01-.138.01-.278 0-.416a1.335 1.335 0 00-.166-.375zM25 4.167a20.833 20.833 0 100 41.666 20.833 20.833 0 000-41.666zm0 37.5a16.666 16.666 0 110-33.333 16.666 16.666 0 010 33.333z" fill="#158F44"/></svg>