<svg width="50" height="50" fill="none" xmlns="http://www.w3.org/2000/svg"><path d="M39.583 33.333a6.25 6.25 0 100 12.501 6.25 6.25 0 000-12.5zm0 8.334a2.083 2.083 0 110-4.166 2.083 2.083 0 010 4.166zM18.75 33.333a6.25 6.25 0 100 12.501 6.25 6.25 0 000-12.5zm0 8.334a2.082 2.082 0 110-4.165 2.082 2.082 0 010 4.165zm27.083-23.959A13.563 13.563 0 0032.292 4.167H31.25a2.084 2.084 0 00-2.083 2.083v10.417h-13.5l-2.604-6.98a2.083 2.083 0 00-1.959-1.354H6.25a2.083 2.083 0 000 4.167h3.417l2.604 7.02 1.062 2.855v.188a13.417 13.417 0 0012.709 8.687h6.25a13.523 13.523 0 0013.541-13.542zm-6.916 6.625a9.315 9.315 0 01-6.625 2.75h-6.25a9.313 9.313 0 01-8.667-5.833.293.293 0 010-.125l-.167-.292h23.917a9.001 9.001 0 01-2.208 3.5zm-5.584-7.666V8.333a9.354 9.354 0 018.334 8.334h-8.334z" fill="#158F44"/></svg>