<svg width="34" height="34" fill="none" xmlns="http://www.w3.org/2000/svg"><path d="M32.533 19.582a1.337 1.337 0 00-.04-.247l-3.265-8.694a4.243 4.243 0 001.939-3.558 1.417 1.417 0 10-2.834 0 1.417 1.417 0 01-2.665.67 4.099 4.099 0 00-3.653-2.086h-3.598V4.25a1.417 1.417 0 10-2.834 0v1.417h-3.598a4.1 4.1 0 00-3.652 2.086 1.417 1.417 0 01-2.666-.67 1.417 1.417 0 00-2.834 0 4.244 4.244 0 001.94 3.558l-3.266 8.694c-.02.081-.034.164-.04.247a1.344 1.344 0 00-.05.252c0 .013.004.025.004.038 0 .019.004.036.005.054a5.658 5.658 0 0011.315 0c0-.018.005-.035.005-.054 0-.013.004-.025.004-.038a1.346 1.346 0 00-.05-.252 1.346 1.346 0 00-.04-.247l-3.27-8.704a4.236 4.236 0 001.437-1.536 1.3 1.3 0 011.158-.595h3.598v19.834h-4.25a1.417 1.417 0 100 2.833h11.334a1.417 1.417 0 100-2.834h-4.25V8.5h3.598a1.3 1.3 0 011.158.595 4.236 4.236 0 001.436 1.536l-3.268 8.704a1.298 1.298 0 00-.04.247 1.338 1.338 0 00-.05.252c0 .013.003.025.003.038 0 .019.004.036.005.054a5.658 5.658 0 0011.315 0c.001-.018.005-.035.006-.054 0-.013.003-.025.003-.038a1.338 1.338 0 00-.05-.252zm-25.45-7.037l2.205 5.872h-4.41l2.205-5.872zm2.44 8.705a2.866 2.866 0 01-2.44 1.417 2.834 2.834 0 01-2.452-1.417h4.893zm17.394-8.704l2.205 5.87h-4.41l2.205-5.87zm0 10.12a2.834 2.834 0 01-2.453-1.416h4.893a2.867 2.867 0 01-2.44 1.417z" fill="#158F44"/></svg>