<svg width="34" height="34" fill="none" xmlns="http://www.w3.org/2000/svg"><path d="M12.75 14.167h1.417a1.417 1.417 0 100-2.833H12.75a1.417 1.417 0 000 2.833zm0 2.833a1.417 1.417 0 100 2.834h8.5a1.417 1.417 0 000-2.834h-8.5zm15.583-4.335a1.86 1.86 0 00-.085-.382v-.128a1.515 1.515 0 00-.269-.396l-8.5-8.5a1.516 1.516 0 00-.396-.27.453.453 0 00-.128 0 1.248 1.248 0 00-.467-.155H9.917a4.25 4.25 0 00-4.25 4.25v19.833a4.25 4.25 0 004.25 4.25h14.166a4.25 4.25 0 004.25-4.25V12.665zm-8.5-5l3.67 3.669H21.25a1.417 1.417 0 01-1.417-1.417V7.664zM25.5 26.916a1.417 1.417 0 01-1.417 1.416H9.917A1.417 1.417 0 018.5 26.918V7.083a1.417 1.417 0 011.417-1.416H17v4.25a4.25 4.25 0 004.25 4.25h4.25v12.75zm-4.25-4.25h-8.5a1.417 1.417 0 000 2.833h8.5a1.417 1.417 0 000-2.833z" fill="#158F44"/></svg>