<svg width="199" height="73" fill="none" xmlns="http://www.w3.org/2000/svg"><g clip-path="url(#clip0_543_4104)"><path d="M33.812 0c2.746.039 5.428.4 7.996 1.034a35.513 35.513 0 015.71 1.978C56.906 7.2 64.06 15.435 66.716 25.48c.039.142-.063.31-.204.349a.338.338 0 01-.23-.04 7.086 7.086 0 00-.83-.426 16.76 16.76 0 00-1.073-.388c-2.057-.633-5.007-1.02-8.277-1.02-3.27 0-5.927.361-7.958.943-1.086.297-1.93.66-2.466 1.047C44.49 16.83 41.157 6.05 33.825.013" fill="#FFF101"/><path d="M21.076 25.945c-.549-.4-1.392-.75-2.478-1.06-2.043-.569-4.84-.944-7.958-.944h-.012c-2.274 0-4.394.194-6.17.53-.294.039-.575.104-.83.155-1.367.31-2.453.711-3.18 1.15-.129.091-.307.04-.397-.09-.038-.077-.064-.142-.025-.22a32.754 32.754 0 012.171-5.92 35.62 35.62 0 013.168-5.352A34.59 34.59 0 0132.943 0C25.586 6.037 22.264 16.831 21.09 25.945m13.45-1.965v28.479a6.87 6.87 0 01-2.03 4.86c-.026.013-.038.04-.077.065a6.94 6.94 0 01-4.828 1.939h-.013a6.923 6.923 0 01-4.905-2.017c-.026-.013-.038-.038-.064-.064a6.794 6.794 0 01-1.967-4.783h-.013c0-.634.524-1.15 1.175-1.15.652 0 1.163.516 1.163 1.15h-.013c0 1.228.498 2.352 1.303 3.167.013.013.05.039.064.052a4.61 4.61 0 003.257 1.331h.013a4.658 4.658 0 003.206-1.28c.026-.026.051-.038.064-.064.83-.84 1.354-1.965 1.354-3.232V23.98c-2.644.078-5.02.414-6.796.905-1.315.362-2.286.827-2.772 1.305.996-9.06 3.372-20.281 10.716-26.19 7.345 5.908 9.708 17.142 10.743 26.216-.485-.504-1.469-.956-2.81-1.318-1.776-.504-4.139-.84-6.796-.905M144.38 7.614c-.026-.66.141-1.538.498-2.081.383-.582.92-.944 1.763-.944.843 0 1.469.414 1.763.866.357.543.472 1.577.46 2.16h-4.484zm6.106 1.164v-.233c0-1.332-.115-2.081-.281-2.624-.064-.155-.294-.931-.83-1.474-.511-.53-1.457-1.008-2.657-1.008-1.533 0-2.504.762-3.104 1.55-.831 1.139-.997 2.405-.997 3.427 0 1.331.205 2.65 1.163 3.787.562.647 1.494 1.383 3.18 1.383a5.074 5.074 0 003.309-1.228l-.588-.97a3.522 3.522 0 01-2.401.932c-1.073 0-1.98-.453-2.44-1.19-.447-.724-.447-1.603-.447-2.12v-.22h6.106l-.013-.012zM137.125 4.68c1.213 0 1.801.75 2.069 1.215.166.297.46.97.46 2.598 0 1.629-.294 2.327-.46 2.611-.268.466-.856 1.216-2.069 1.216-1.214 0-1.801-.75-2.057-1.216-.166-.297-.46-.97-.46-2.61 0-1.643.294-2.302.46-2.6.256-.465.83-1.214 2.057-1.214zm0-1.254c-1.112 0-2.351.49-3.092 1.37-.792.905-1.111 2.366-1.111 3.697 0 1.603.409 2.883 1.111 3.697.767.905 1.968 1.384 3.092 1.384s2.35-.466 3.116-1.384c.703-.827 1.112-2.094 1.112-3.697 0-1.331-.332-2.792-1.112-3.697-.753-.88-1.98-1.37-3.116-1.37zm-12.174 9.915h1.52V8.894h1.533c.23 0 .55-.013.894.297.307.298.396.569.46.97l.256 1.448c.102.543.217.943.46 1.254.357.44.907.556 1.264.581l1.06.078.243-.957-.37-.116c-.358-.116-.499-.142-.575-.207-.23-.142-.358-.44-.409-.646l-.511-1.836c-.089-.362-.217-.711-.524-1.047a1.665 1.665 0 00-.625-.414v-.064c.268-.09.562-.259.728-.466.293-.31.37-.685.459-.97l.409-1.447a1.15 1.15 0 01.294-.543c.128-.13.294-.181.422-.22l.587-.13-.268-.969-.869.078c-.689.065-1.009.284-1.188.465-.23.246-.37.647-.447 1.009l-.294 1.473c-.114.608-.37.84-.447.931-.255.246-.485.297-.881.297h-1.661V3.44l-1.52.297v9.605zm-1.992-2.043c-.192.233-.422.466-.69.62a2.578 2.578 0 01-1.405.428c-.562 0-1.29-.143-1.801-.88-.511-.762-.588-1.796-.588-2.65 0-1.525.205-2.61.715-3.27.575-.75 1.354-.802 1.738-.802.293 0 1.009.026 1.788.776l.83-1.06c-.983-.905-1.992-1.047-2.644-1.047-.779 0-1.712.194-2.593 1.034-.868.789-1.558 2.12-1.558 4.214 0 1.564.383 2.65.945 3.439.613.84 1.494 1.486 3.066 1.486.702 0 1.264-.116 1.686-.31.523-.232 1.022-.646 1.367-.995l-.856-.97v-.013zm-9.657-6.476v7.355h-4.177c1.086-2.184 1.405-4.253 1.494-5.946l.064-1.41h2.632-.013zm2.746 7.355h-1.213V3.658h-5.493l-.038 1.797c-.064 2.637-.537 4.745-1.648 6.722h-.715v3.93h1.494v-2.779h6.131v2.78h1.482v-3.93zm-13.744-7.51c1.213 0 1.801.75 2.069 1.215.141.297.434.97.434 2.598 0 1.63-.293 2.327-.434 2.612-.268.465-.856 1.215-2.069 1.215-1.214 0-1.801-.75-2.057-1.215-.166-.298-.46-.97-.46-2.612 0-1.642.294-2.3.46-2.598.256-.465.831-1.215 2.057-1.215zm0-1.254c-1.112 0-2.35.491-3.091 1.37-.792.905-1.124 2.366-1.124 3.697 0 1.603.408 2.883 1.124 3.697.766.905 1.967 1.384 3.091 1.384s2.337-.466 3.117-1.384c.702-.827 1.111-2.094 1.111-3.697 0-1.331-.332-2.792-1.111-3.697-.754-.879-1.993-1.37-3.117-1.37zM90.322 6.179c.677-.905 1.674-1.396 2.619-1.396 1.188 0 1.635.75 1.8 1.112.27.53.46 1.37.46 2.934 0 .35-.012 1.487-.408 2.275-.37.737-1.15 1.203-2.057 1.203-1.022 0-1.89-.673-2.414-1.267V6.166v.013zm-1.75-2.508c.166.634.217 1.203.217 2.082v11.621l1.533-.284v-4.641c.805.827 1.89 1.112 2.695 1.112 1.533 0 2.53-.97 3.028-1.745.715-1.138.779-2.47.779-3.349 0-1.629-.307-2.844-1.073-3.8-.32-.414-1.099-1.254-2.619-1.254-.983 0-2.107.426-2.886 1.448 0-.505-.039-.983-.103-1.474l-1.57.258v.026zm-5.441.996c1.213 0 1.8.75 2.056 1.215.166.297.46.97.46 2.598 0 1.63-.294 2.327-.46 2.612-.242.465-.83 1.215-2.056 1.215-1.227 0-1.814-.75-2.07-1.215-.166-.298-.46-.97-.46-2.612 0-1.642.294-2.3.46-2.598.256-.465.856-1.215 2.07-1.215zm0-1.254c-1.124 0-2.364.491-3.117 1.37-.78.905-1.111 2.366-1.111 3.697 0 1.603.408 2.883 1.11 3.697.767.905 1.968 1.384 3.118 1.384s2.337-.466 3.09-1.384c.703-.827 1.112-2.094 1.112-3.697 0-1.331-.32-2.792-1.111-3.697-.754-.879-1.98-1.37-3.091-1.37zM72.567 0v13.34h1.597V1.37h5.505L79.771 0h-7.204zm124.198 28.57h-3.679c0-1.59.677-2.535 1.89-2.535 1.073 0 1.789.957 1.789 2.534zM199 30.171v-.452c0-2.288-.422-3.49-1.29-4.28-.856-.749-1.75-1.007-2.734-1.007-1.264 0-2.248.413-3.053 1.318-.855.983-1.226 2.133-1.226 3.852 0 3.168 1.776 5.184 4.573 5.184 1.341 0 2.542-.44 3.564-1.305l-.83-1.306c-.754.646-1.559.97-2.478.97-1.942 0-2.453-1.435-2.453-2.793v-.18H199zm-11.982-.53c0 2.508-.702 3.542-1.98 3.542-1.277 0-1.992-.84-1.992-3.723 0-2.391.587-3.425 1.941-3.425 1.265 0 2.044.84 2.044 3.606m2.414-.013c0-3.115-1.609-5.196-4.445-5.196-2.631 0-4.33 2.03-4.33 5.17 0 3.142 1.686 5.184 4.368 5.184 2.683 0 4.407-1.965 4.407-5.158zm-15.647.466h3.359v4.42h2.133V24.459l-2.133.414v3.633h-3.359V24.47l-2.146.414v9.644h2.146v-4.434zm-9.031-.259h1.175c.46 0 1.047.039 1.456.427.383.349.409.879.409 1.189 0 .31-.026.776-.396 1.138-.383.374-.971.426-1.405.426h-1.226V29.85l-.013-.013zm-2.146-4.964v9.644h3.742c1.201 0 2.249-.181 2.951-.892.383-.375.767-1.047.767-2.146 0-.582-.09-1.487-.792-2.198-.92-.943-2.287-.956-3.092-.956h-1.417v-3.866l-2.146.414h-.013zm-7.984-.18l-.115 1.835c-.089 1.202-.115 1.913-.268 3.219-.115 1.202-.128 2.34-.715 2.908-.23.233-.652.427-.971.517l-.422.09.422 1.474.524-.064c.6-.065 1.456-.155 2.069-.75.524-.517.69-1.267.766-1.77.115-.712.23-1.927.294-2.509.09-.879.141-1.693.179-2.275l.089-1.073h2.236v8.235h2.146v-9.825h-6.221l-.013-.013zm-5.122 3.877h-3.666c0-1.59.664-2.534 1.878-2.534 1.085 0 1.788.957 1.788 2.534zm2.248 1.603v-.452c0-2.288-.434-3.49-1.303-4.28-.83-.749-1.75-1.007-2.733-1.007-1.252 0-2.236.413-3.04 1.318-.869.983-1.227 2.133-1.227 3.852 0 3.168 1.763 5.184 4.561 5.184 1.341 0 2.541-.44 3.576-1.305l-.856-1.306c-.741.646-1.545.97-2.465.97-1.954 0-2.453-1.435-2.453-2.793v-.18h5.94zm-11.445-3.89h2.568l.281-1.59h-7.665v1.59h2.67v8.234h2.146V26.28zm-7.996 3.606l-.039 2.34c-.421.62-1.098.995-1.788.995-.868 0-1.367-.543-1.367-1.487 0-1.253.652-1.861 2.811-1.861.166 0 .396.013.396.013m2.963 3.671c-.766-.517-.881-.944-.869-2.262l.039-2.818c.013-1.474.013-1.978-.166-2.405-.447-1.073-1.469-1.641-3.028-1.641-1.558 0-2.733.413-4.228 1.344l.971 1.525s1.533-1.111 2.964-1.111c1.175 0 1.366.594 1.366 1.719v.53h-.664c-3.181 0-4.918 1.15-4.918 3.426 0 1.706 1.022 2.921 3.296 2.921 1.06 0 1.929-.284 2.733-1.176.23.62.754 1.086 1.367 1.319l1.111-1.37h.026zm-13.067-7.29h3.819l.268-1.59h-6.208v9.824h2.133v-8.235h-.012zm-5.838 2.287h-3.666c0-1.59.677-2.533 1.891-2.533 1.073 0 1.775.956 1.775 2.533zm2.248 1.603v-.452c0-2.288-.447-3.49-1.29-4.279-.856-.75-1.763-1.008-2.733-1.008-1.265 0-2.249.413-3.053 1.318-.869.983-1.227 2.133-1.227 3.852 0 3.168 1.763 5.184 4.573 5.184 1.342 0 2.53-.44 3.564-1.305l-.83-1.306c-.754.646-1.558.97-2.478.97-1.955 0-2.453-1.435-2.453-2.793v-.18h5.927zm-15.251-2.921c.421-.44 1.162-.996 2.146-.996.408 0 .779.09 1.111.44.575.582.69 1.642.69 2.909 0 .762 0 2.184-.869 2.96-.319.284-.677.4-1.099.4-.804 0-1.481-.374-1.979-.865v-4.848zm-2.287-2.47c.102.427.204 1.151.204 2.457V38.69l2.083-.53v-2.883c0-.361-.026-.892-.064-1.331.932.724 1.839.827 2.337.827 1.278 0 2.082-.517 2.555-.956.805-.776 1.443-2.185 1.443-4.33 0-2.147-.677-3.453-1.341-4.112a3.458 3.458 0 00-2.427-.956c-.817 0-1.89.284-2.657 1.176 0-.362-.064-.763-.153-1.176l-1.993.349h.013zm-3.206 3.788h-3.679c0-1.59.677-2.533 1.89-2.533 1.074 0 1.789.956 1.789 2.533zm2.235 1.603v-.452c0-2.288-.421-3.49-1.29-4.279-.856-.75-1.75-1.008-2.733-1.008-1.265 0-2.249.413-3.053 1.318-.869.983-1.24 2.133-1.24 3.852 0 3.168 1.763 5.184 4.574 5.184 1.34 0 2.529-.44 3.564-1.305l-.83-1.306c-.754.646-1.56.97-2.479.97-1.941 0-2.452-1.435-2.452-2.793v-.18h5.939zm-13.386-3.89c.536 0 1.098.18 1.494.827.396.659.511 1.887.511 2.637s-.102 1.939-.51 2.611c-.397.646-.92.827-1.495.827-.575 0-1.099-.18-1.495-.827-.358-.608-.498-1.745-.498-2.611 0-.802.09-1.965.498-2.637.396-.647.92-.828 1.495-.828zm3.282-6.8l-.779.413-3.091 1.293c-.703.297-1.469.71-2.146 1.357-.6.595-.933 1.177-1.2 1.952-.448 1.383-.473 2.883-.473 4.06 0 1.745.064 3.516 1.2 4.86.869.995 1.968 1.383 3.181 1.383 1.546 0 2.58-.646 3.245-1.383.549-.646 1.175-1.797 1.175-3.723 0-2.159-.767-3.27-1.112-3.697-.536-.62-1.418-1.293-2.835-1.293-.767 0-1.393.181-2.006.608a3.42 3.42 0 00-.983 1.086l-.09-.026.077-.608c.076-.556.306-1.835 1.763-2.443l2.58-1.06c.294-.117.664-.246 1.162-.466.46-.193.754-.323 1.112-.568l-.78-1.733v-.013zM82.147 33.52l-1.06-1.422c-.767.608-1.47.854-2.44.854-1.303 0-2.44-.62-3.027-1.9-.358-.763-.524-1.694-.524-3.31s.23-2.702.703-3.53c.587-1.033 1.558-1.615 2.72-1.615.83 0 1.584.233 2.325.763l1.048-1.448c-.805-.66-2.07-1.06-3.373-1.06-2.133 0-3.985 1.176-5.02 3.102-.6 1.112-.894 2.47-.894 4.06 0 1.887.524 3.529 1.546 4.744 1.073 1.267 2.49 1.952 4.317 1.952 1.456 0 2.644-.401 3.705-1.19m89.389 16.366h-3.615v-.039c0-.568.077-1.422.562-2.016.307-.362.754-.57 1.303-.57.473 0 .958.156 1.303.608.409.556.447 1.267.447 1.875v.142zm3.232 2.262v-.724c0-1.331-.115-3.684-1.584-5.157-.715-.724-1.839-1.28-3.436-1.28-1.303 0-2.58.323-3.755 1.616-.882.995-1.482 2.3-1.482 4.537 0 2.236.715 3.723 1.596 4.628.984.995 2.402 1.577 4.037 1.577 1.29 0 2.976-.4 4.496-1.629l-1.213-1.848c-1.354 1.099-2.504 1.176-2.976 1.176-.575 0-1.252-.116-1.789-.62-.472-.44-.766-1.177-.766-2.03v-.246h6.885-.013zm-18.1 4.926l2.567-4.874c.447-.84.805-1.655 1.188-2.792a36.733 36.733 0 00-.14 3.374v4.292h3.065V44.987l-3.18.569-2.427 4.615c-.396.736-.997 2.184-1.316 2.934a29.06 29.06 0 00.128-2.689v-5.43l-3.066.57v11.518h3.181zm-10.845 0v-5.145h3.193v5.145h3.079V44.987l-3.079.569v4.214h-3.193v-4.783l-3.078.569v11.518h3.078zm-7.805-7.188h-3.615v-.039c0-.568.077-1.422.562-2.016.307-.362.754-.57 1.303-.57.473 0 .958.156 1.303.608.409.556.447 1.267.447 1.875v.142zm3.232 2.262v-.724c0-1.331-.115-3.684-1.584-5.157-.715-.724-1.839-1.28-3.436-1.28-1.303 0-2.58.323-3.755 1.616-.882.995-1.482 2.3-1.482 4.537 0 2.236.715 3.723 1.597 4.628.983.995 2.401 1.577 4.036 1.577 1.29 0 2.976-.4 4.496-1.629l-1.213-1.848c-1.354 1.099-2.504 1.176-2.976 1.176-.575 0-1.252-.116-1.789-.62-.472-.44-.766-1.177-.766-2.03v-.246h6.885-.013zm-14.958 4.926h3.079v-11.79h-7.894l-.052 1.487c-.025 1.034-.038 1.758-.14 2.96-.064.944-.204 2.353-.332 3.09-.166.853-.358 1.215-.473 1.409-.357.504-.958.737-1.201.788l-.587.155.562 2.133 1.162-.116c1.061-.09 1.699-.362 2.172-.763.575-.504.805-1.189.971-1.797.281-1.085.357-2.3.447-3.49.179-2.379.115-2.21.14-2.702l.051-.982h2.108v9.618h-.013zm-11.483-7.188h-3.615v-.039c0-.568.076-1.422.562-2.016.306-.362.753-.57 1.303-.57.472 0 .958.156 1.303.608.408.556.447 1.267.447 1.875v.142zm3.231 2.262v-.724c0-1.331-.115-3.684-1.584-5.157-.715-.724-1.839-1.28-3.436-1.28-1.303 0-2.58.323-3.742 1.616-.894.995-1.495 2.3-1.495 4.537 0 2.236.716 3.723 1.597 4.628.983.995 2.414 1.577 4.036 1.577 1.303 0 2.977-.4 4.497-1.629l-1.214-1.848c-1.354 1.099-2.503 1.176-2.976 1.176-.575 0-1.252-.116-1.788-.62-.46-.44-.767-1.177-.767-2.03v-.246h6.885-.013zm-14.932-4.705v7.459h-3.972c.6-.97.983-2.185 1.162-3 .166-.684.383-2.016.434-2.856l.115-1.603h2.261zm4.56 7.459H106.2v-9.63h-7.6l-.039 1.434c-.051 1.19-.358 3.465-.664 4.667-.294 1.215-.83 2.469-1.405 3.529h-.971v5.39h2.925v-3.231h6.361v3.232h2.9v-5.391h-.013zM93.579 57.06v-9.618h2.823l.422-2.172h-9.338v2.172h3.028v9.618h3.065zM79.567 43.24c1.699 0 2.376 1.164 2.657 1.707.293.608.677 1.577.677 4.124 0 2.546-.383 3.49-.677 4.098-.422.84-1.112 1.706-2.657 1.706-1.546 0-2.236-.866-2.657-1.706-.294-.608-.677-1.565-.677-4.098 0-2.534.383-3.53.677-4.124.28-.543.958-1.706 2.657-1.706zm0-2.456c-2.542 0-4.126 1.073-5.02 2.12-1.29 1.422-1.98 3.62-1.98 6.167 0 2.546.69 4.705 1.98 6.153.894 1.021 2.478 2.12 5.02 2.12 2.542 0 4.126-1.086 5.02-2.12 1.29-1.448 1.98-3.632 1.98-6.153 0-2.521-.69-4.745-1.98-6.166-.894-1.048-2.478-2.12-5.02-2.12zm116.584 28.402v1.668h.307c.524 0 .869-.064 1.047-.194a.649.649 0 00.281-.556.822.822 0 00-.332-.672c-.217-.168-.549-.246-1.047-.246h-.256zm0-2.469v1.384h.282c.293 0 .523-.065.689-.194.154-.13.217-.298.217-.53 0-.194-.063-.362-.217-.479-.127-.129-.357-.18-.638-.18h-.333zm-1.226 5.326v-6.502h1.022c.6 0 1.035.039 1.303.116.396.104.703.298.932.57.23.284.345.607.345.995 0 .245-.051.452-.153.672a2.078 2.078 0 01-.511.569c.396.18.664.413.856.685a1.7 1.7 0 01.281.982c0 .375-.102.698-.281.996-.192.31-.447.517-.741.672-.294.168-.715.233-1.239.233h-1.814v.012zm-1.494-6.502v6.502h-1.227v-4.085l-2.452 4.085h-1.06v-6.502h1.239v4.214l2.491-4.214h1.021-.012zm-9.172 0h3.59v1.228h-1.176v5.274h-1.264V66.77h-1.15v-1.228zm-3.449 1.72l-.881 2.249h1.75l-.869-2.25zm-.626-1.72h1.24l2.503 6.502h-1.29l-.511-1.344h-2.67l-.523 1.344h-1.278l2.517-6.502h.012zm-5.85 2.534h.396c.307 0 .537-.013.652-.065a.801.801 0 00.293-.207.712.712 0 00.103-.375c0-.245-.103-.44-.294-.555-.141-.078-.409-.13-.805-.13h-.345v1.345-.013zm-1.226-2.534h1.303c.702 0 1.226.065 1.545.194.307.13.55.349.741.633.192.285.281.634.281 1.047 0 .466-.115.84-.357 1.138-.23.31-.55.53-.971.633-.243.065-.664.104-1.303.104v2.753h-1.226v-6.502h-.013zm-4.701 0h3.551v1.215h-2.325v1.164h2.325v1.202h-2.325v1.72h2.325v1.214h-3.551v-6.515zm-6.169 0h4.687v6.502h-1.264v-5.339h-2.159v5.34h-1.264V65.54zm-4.548 1.047c-.613 0-1.111.22-1.52.62-.409.427-.613.944-.613 1.604 0 .724.268 1.292.766 1.706.396.323.856.491 1.38.491.588 0 1.086-.207 1.494-.633a2.21 2.21 0 00.626-1.577c0-.62-.217-1.15-.626-1.577a2.01 2.01 0 00-1.507-.634zm.013-1.215c.92 0 1.699.323 2.376.995.651.673.983 1.474.983 2.444s-.332 1.758-.983 2.404c-.639.66-1.444.983-2.376.983-.933 0-1.788-.35-2.427-1.022-.652-.672-.984-1.473-.984-2.404 0-.62.166-1.19.46-1.706a3.15 3.15 0 011.252-1.242 3.3 3.3 0 011.699-.465m-7.626 1.215c-.6 0-1.111.22-1.507.62-.409.427-.626.944-.626 1.604 0 .724.255 1.292.766 1.706.409.323.869.491 1.38.491.587 0 1.086-.206 1.494-.633.422-.427.626-.957.626-1.577s-.191-1.15-.626-1.577a2.01 2.01 0 00-1.507-.634zm.013-1.215c.92 0 1.699.323 2.376.996.651.672.996 1.473.996 2.443s-.332 1.758-.983 2.404c-.652.66-1.457.983-2.376.983-.984 0-1.801-.35-2.44-1.022a3.327 3.327 0 01-.971-2.404c0-.62.141-1.19.447-1.707.307-.517.715-.956 1.239-1.24a3.3 3.3 0 011.699-.466m-8.673.168h1.239v2.25l1.763-2.25h1.494l-2.274 2.896 2.504 3.607h-1.469l-2.018-2.896v2.896h-1.239v-6.503zm-8.188-1.758h.983a.817.817 0 00.333.285c.127.051.293.077.498.077.204 0 .396-.026.536-.103.115-.052.192-.13.281-.259h.984c-.051.375-.23.672-.537.905-.293.233-.715.349-1.264.349-.358 0-.677-.052-.92-.142-.243-.117-.447-.259-.588-.44a1.54 1.54 0 01-.293-.659m4.164 1.758v6.502h-1.226v-4.085l-2.453 4.086h-1.06v-6.503h1.226v4.214l2.491-4.214h1.035-.013zm-6.221 0v6.502h-1.239v-4.085l-2.44 4.086h-1.06v-6.503h1.226v4.214l2.491-4.214h1.035-.013zm-10.346 0h1.239v2.25l1.762-2.25h1.495l-2.274 2.896 2.491 3.606h-1.456l-2.018-2.895v2.895h-1.239v-6.502zm-1.099 1.15l-.869.815c-.587-.62-1.264-.93-1.992-.93-.626 0-1.15.22-1.571.646a2.146 2.146 0 00-.639 1.577c0 .426.102.814.281 1.15.192.35.46.608.805.802.345.18.741.271 1.149.271.358 0 .703-.064.997-.194.293-.129.626-.374.983-.736l.83.879c-.472.465-.932.788-1.354.97-.421.193-.919.284-1.469.284-.996 0-1.839-.31-2.478-.97-.651-.633-.97-1.46-.97-2.456 0-.66.153-1.228.447-1.733.281-.504.702-.904 1.264-1.215a3.46 3.46 0 011.763-.465c.524 0 1.047.116 1.533.349.511.207.932.543 1.29.97m-9.9 2.404v1.771h.307c.524 0 .869-.065 1.047-.18.167-.13.269-.35.269-.66 0-.62-.46-.931-1.354-.931h-.269zm-1.226 2.947v-6.502h1.226v2.456h.281c.511 0 .946.052 1.291.181.344.117.638.35.881.672.255.35.383.737.383 1.216 0 .44-.102.814-.306 1.137-.23.31-.473.543-.754.66-.294.129-.69.193-1.175.193h-1.814l-.013-.013zm-2.056 0l-1.801-4.77-1.84 4.77h-1.328l2.516-6.502h1.265l2.503 6.502h-1.328.013zm-8.916-6.502h3.551v1.215h-2.325v1.164h2.325v1.202h-2.325v1.72h2.325v1.214h-3.551v-6.515zm-4.458 0h3.602v1.228h-1.175v5.274h-1.265V66.77h-1.162v-1.228zm-.856 0v6.502h-1.226v-4.085l-2.44 4.085h-1.06v-6.502h1.226v4.214l2.49-4.214h1.023-.013zm-8.66 3.555v1.771h.306c.575 0 .932-.065 1.086-.207a.844.844 0 00.23-.607c0-.62-.46-.957-1.354-.957h-.269zm-1.227 2.947v-6.502h3.41v1.202h-2.17v1.267h.28c.537 0 .997.052 1.341.181.345.117.639.35.869.685.243.323.358.724.358 1.177 0 .452-.103.814-.256 1.085a2.246 2.246 0 01-.715.673c-.307.168-.741.245-1.278.245h-1.813l-.026-.013zm-4.7-6.502h3.55v1.215h-2.324v1.164h2.325v1.202h-2.325v1.72h2.325v1.214h-3.552v-6.515zm-3.858 2.534h.408c.307 0 .524-.013.64-.065a.64.64 0 00.293-.207.68.68 0 00.102-.375c0-.245-.102-.44-.294-.555-.127-.078-.408-.13-.779-.13h-.358v1.345l-.012-.013zm-1.227-2.534h1.316c.715 0 1.226.065 1.533.194.307.13.575.349.754.633.178.298.268.634.268 1.047 0 .466-.115.84-.345 1.138-.243.31-.575.53-.984.633-.23.065-.664.104-1.303.104v2.753h-1.226v-6.502h-.013zm-4.432 0h3.602v1.228h-1.175v5.274h-1.264V66.77H68.21v-1.228zm-3.909 1.047c-.613 0-1.111.22-1.52.62-.408.427-.6.944-.6 1.604 0 .724.255 1.292.766 1.706.396.323.856.491 1.38.491.587 0 1.086-.207 1.494-.633a2.21 2.21 0 00.626-1.577c0-.62-.217-1.15-.626-1.577a2.013 2.013 0 00-1.507-.634m.013-1.215c.92 0 1.699.323 2.376.995.651.673.983 1.474.983 2.444s-.332 1.758-.97 2.404c-.652.66-1.457.983-2.39.983-.932 0-1.787-.35-2.426-1.022a3.33 3.33 0 01-.97-2.404c0-.62.152-1.19.446-1.706a3.195 3.195 0 011.24-1.242 3.298 3.298 0 011.698-.465m-9.235.168h4.688v6.502h-1.265v-5.338h-2.171v5.339h-1.24v-6.503h-.012zm-8.163-1.758h.984a.935.935 0 00.307.284c.14.052.306.078.51.078.205 0 .371-.026.537-.103a.747.747 0 00.281-.259h.984a1.416 1.416 0 01-.537.905c-.306.233-.715.349-1.264.349-.37 0-.678-.052-.92-.142a1.968 1.968 0 01-.613-.44 1.519 1.519 0 01-.281-.66m4.138 1.759v6.502h-1.226v-4.085l-2.44 4.085h-1.06v-6.502h1.226v4.214l2.491-4.214h1.01zm-11.177 3.555v1.771h.307c.51 0 .856-.065 1.035-.18.178-.13.268-.35.268-.66 0-.62-.447-.931-1.341-.931h-.269zm-1.226 2.947v-6.502h1.226v2.456h.269c.523 0 .945.052 1.29.181.345.117.639.35.894.672.243.35.383.737.383 1.216 0 .44-.115.814-.332 1.137-.217.31-.46.543-.754.66-.28.129-.677.193-1.162.193H38.64v-.013zm4.956-6.502h1.227v6.502h-1.227v-6.502zm-11.125 0h1.264v2.456h2.184v-2.456h1.24v6.502h-1.24v-2.857h-2.184v2.857h-1.264v-6.502zm-4.42 0h3.59v1.228h-1.176v5.274h-1.264V66.77h-1.15v-1.228zm-.856 0v6.502h-1.239v-4.085l-2.44 4.085h-1.06v-6.502h1.226v4.214l2.491-4.214h1.035-.013zm-8.967 1.706l-1.444 3.633h2.862l-1.418-3.633zm-.639-1.706h1.24l2.107 5.339h.715v2.133h-1.2v-.97h-4.497v.97h-1.2V70.88h.715l2.095-5.339h.025zm-6.834 0h3.551v1.215h-2.312v1.164h2.312v1.202h-2.312v1.72h2.312v1.214h-3.55v-6.515zm-3.844 2.534h.396c.306 0 .523-.013.651-.065a.67.67 0 00.281-.207.62.62 0 00.115-.375c0-.245-.102-.44-.294-.555-.153-.078-.409-.13-.805-.13h-.344v1.345-.013zM5.67 65.54H7c.702 0 1.226.065 1.533.194.306.13.562.349.74.633.18.298.282.634.282 1.047 0 .466-.128.84-.358 1.138-.243.31-.562.53-.97.633-.243.065-.69.104-1.316.104v2.753H5.67V65.54zm-5.607-.013h1.264v2.25l1.75-2.25h1.508l-2.274 2.896 2.49 3.606H3.335L1.34 69.136v2.895H.064v-6.502z" fill="#fff"/></g><defs><clipPath id="clip0_543_4104"><path fill="#fff" d="M0 0h199v73H0z"/></clipPath></defs></svg>