<svg width="117" height="44" fill="none" xmlns="http://www.w3.org/2000/svg"><g clip-path="url(#clip0_579_5905)"><path d="M19.88 0a20.39 20.39 0 014.7.623 20.61 20.61 0 013.358 1.192c5.52 2.525 9.725 7.488 11.287 13.543a.183.183 0 01-.12.21.194.194 0 01-.135-.024 4.128 4.128 0 00-.488-.257 9.609 9.609 0 00-.631-.233c-1.21-.382-2.944-.616-4.867-.616-1.922 0-3.484.218-4.678.569-.639.18-1.134.397-1.45.631-.698-5.493-2.658-11.991-6.97-15.63" fill="#FFF101"/><path d="M12.392 15.638c-.323-.242-.819-.452-1.457-.639-1.202-.343-2.847-.569-4.68-.569h-.007c-1.336 0-2.583.117-3.627.32-.173.023-.338.062-.488.093-.804.187-1.442.429-1.87.694-.075.054-.18.023-.233-.055-.022-.046-.037-.085-.015-.132a20.067 20.067 0 011.277-3.569 21.598 21.598 0 011.862-3.226C6.79 3.444 12.684.085 19.37 0c-4.326 3.639-6.279 10.145-6.97 15.638m7.908-1.184v17.165a4.194 4.194 0 01-1.194 2.93c-.015.007-.022.023-.045.039a4.029 4.029 0 01-2.839 1.168h-.007a4.02 4.02 0 01-2.884-1.215c-.015-.008-.023-.024-.038-.04a4.148 4.148 0 01-1.156-2.882h-.008a.687.687 0 111.375 0h-.008c0 .74.293 1.418.766 1.909.008.008.03.023.038.031a2.677 2.677 0 001.915.803h.007c.729 0 1.397-.297 1.885-.772.015-.015.03-.023.038-.039a2.79 2.79 0 00.796-1.948v-17.15c-1.555.047-2.951.25-3.995.546-.774.218-1.345.499-1.63.787.586-5.462 1.983-12.225 6.3-15.786 4.32 3.56 5.709 10.332 6.317 15.802-.285-.304-.864-.577-1.652-.795-1.044-.304-2.434-.507-3.996-.546M84.887 4.59c-.015-.398.082-.928.293-1.255.225-.35.54-.569 1.036-.569s.864.25 1.037.522c.21.327.277.95.27 1.301h-2.636zm3.59.7v-.14c0-.802-.068-1.254-.166-1.581-.037-.094-.172-.561-.488-.889-.3-.32-.856-.607-1.562-.607-.901 0-1.472.46-1.825.935-.488.685-.586 1.449-.586 2.064 0 .803.12 1.598.684 2.283.33.39.878.834 1.87.834a2.94 2.94 0 001.945-.74l-.346-.584a2.04 2.04 0 01-1.411.56c-.631 0-1.165-.272-1.435-.716-.263-.437-.263-.966-.263-1.278v-.133h3.59l-.007-.007zM80.62 2.82c.714 0 1.059.453 1.217.733.097.18.27.584.27 1.566 0 .982-.173 1.403-.27 1.574-.158.28-.503.733-1.217.733-.713 0-1.059-.452-1.21-.733-.097-.18-.27-.584-.27-1.574 0-.99.173-1.387.27-1.566.151-.28.49-.732 1.21-.732zm0-.755c-.653 0-1.382.296-1.817.826-.466.545-.654 1.426-.654 2.228 0 .966.24 1.738.654 2.229.45.545 1.156.833 1.817.833.66 0 1.382-.28 1.833-.833.413-.499.653-1.263.653-2.229 0-.802-.195-1.683-.653-2.228-.444-.53-1.165-.826-1.833-.826zM73.464 8.04h.894V5.36h.9c.136 0 .324-.008.526.179.18.18.233.343.27.584l.151.873c.06.327.128.569.27.756.21.265.534.335.744.35l.623.047.143-.576-.218-.07c-.21-.07-.293-.086-.338-.125-.135-.086-.21-.265-.24-.39l-.3-1.106a1.373 1.373 0 00-.308-.631.978.978 0 00-.368-.25v-.039a.97.97 0 00.428-.28c.172-.187.218-.413.27-.585l.24-.872a.698.698 0 01.173-.327.554.554 0 01.248-.133l.345-.078-.157-.584-.511.047c-.406.038-.593.17-.698.28-.136.148-.218.39-.263.608l-.173.888c-.068.366-.218.507-.263.561-.15.148-.285.18-.518.18h-.976V2.072l-.894.179v5.79zm-1.172-1.23c-.112.14-.248.28-.405.374a1.49 1.49 0 01-.826.257c-.33 0-.759-.086-1.06-.53-.3-.46-.345-1.083-.345-1.597 0-.92.12-1.574.42-1.971.339-.452.797-.483 1.022-.483.173 0 .594.015 1.052.467l.488-.639a2.194 2.194 0 00-1.555-.631c-.458 0-1.006.117-1.524.623-.511.476-.917 1.278-.917 2.54 0 .943.226 1.598.556 2.073.36.507.879.896 1.803.896.413 0 .743-.07.99-.187.309-.14.602-.39.805-.6l-.504-.584V6.81zm-5.677-3.904V7.34h-2.456c.638-1.317.826-2.564.878-3.584l.038-.85h1.547-.007zm1.614 4.434h-.713V2.205h-3.23l-.022 1.083c-.037 1.59-.315 2.86-.969 4.052h-.42v2.369h.878V8.033h3.605V9.71h.871V7.34zm-8.08-4.527c.713 0 1.058.452 1.216.732.083.18.255.585.255 1.566 0 .982-.172 1.403-.255 1.574-.158.28-.503.733-1.217.733-.713 0-1.059-.452-1.209-.733-.097-.179-.27-.584-.27-1.574 0-.99.173-1.387.27-1.566.15-.28.489-.732 1.21-.732zm0-.756c-.654 0-1.382.296-1.818.826-.466.545-.66 1.426-.66 2.228 0 .967.24 1.738.66 2.229.45.545 1.157.834 1.817.834.661 0 1.375-.281 1.833-.834.413-.499.653-1.262.653-2.229 0-.802-.195-1.683-.653-2.228-.443-.53-1.172-.826-1.833-.826zm-7.045 1.667c.398-.545.984-.841 1.54-.841.698 0 .96.452 1.059.67.157.32.27.826.27 1.769 0 .21-.008.896-.24 1.371-.218.444-.676.725-1.21.725-.6 0-1.111-.405-1.419-.764V3.717v.007zm-1.029-1.511c.098.382.128.724.128 1.254v7.005l.901-.171V7.503a2.22 2.22 0 001.585.67c.9 0 1.487-.584 1.78-1.051.42-.686.458-1.489.458-2.018 0-.982-.18-1.715-.631-2.291a1.848 1.848 0 00-1.54-.756 2.12 2.12 0 00-1.697.873c0-.304-.023-.592-.06-.889l-.924.156v.016zm-3.2.6c.714 0 1.06.452 1.21.732.098.18.27.585.27 1.566 0 .982-.172 1.403-.27 1.574a1.3 1.3 0 01-1.21.733c-.72 0-1.066-.452-1.216-.733-.097-.179-.27-.584-.27-1.574 0-.99.172-1.387.27-1.566.15-.28.503-.732 1.217-.732zm0-.756c-.66 0-1.389.296-1.832.826-.458.545-.653 1.426-.653 2.228 0 .967.24 1.738.653 2.229.45.545 1.157.834 1.833.834.676 0 1.374-.281 1.817-.834.413-.499.654-1.262.654-2.229 0-.802-.188-1.683-.654-2.228-.443-.53-1.164-.826-1.817-.826zM42.666 0v8.041h.939V.826h3.237L46.9 0h-4.236zm73.02 17.22h-2.163c0-.959.398-1.527 1.111-1.527.631 0 1.052.576 1.052 1.527zm1.314.966v-.273c0-1.379-.248-2.104-.759-2.579-.503-.452-1.028-.608-1.607-.608-.743 0-1.321.25-1.795.795-.503.592-.721 1.286-.721 2.322 0 1.91 1.044 3.125 2.689 3.125.789 0 1.495-.265 2.095-.787l-.488-.787c-.443.39-.916.584-1.457.584-1.141 0-1.442-.865-1.442-1.683v-.11H117zm-7.044-.32c0 1.512-.414 2.135-1.165 2.135-.751 0-1.171-.506-1.171-2.244 0-1.441.345-2.064 1.141-2.064.744 0 1.202.506 1.202 2.173m1.419-.007c0-1.878-.946-3.133-2.613-3.133-1.547 0-2.546 1.224-2.546 3.117s.991 3.125 2.568 3.125c1.578 0 2.591-1.185 2.591-3.11zm-9.199.28h1.975v2.665h1.254v-6.062l-1.254.25v2.189h-1.975V14.75l-1.262.25v5.812h1.262v-2.673zm-5.31-.156h.69c.271 0 .617.024.857.258.225.21.24.53.24.716 0 .187-.015.468-.233.686-.225.226-.57.257-.826.257h-.72v-1.909l-.008-.008zm-1.262-2.992v5.813h2.2c.707 0 1.322-.11 1.735-.538.226-.226.451-.63.451-1.293 0-.35-.052-.896-.466-1.325-.54-.569-1.344-.576-1.817-.576h-.834v-2.33l-1.261.25h-.008zm-4.694-.109l-.067 1.107c-.053.724-.068 1.153-.158 1.94-.067.724-.075 1.41-.42 1.753-.136.14-.384.257-.571.312l-.248.054.248.888.308-.038c.353-.04.856-.094 1.216-.453.308-.311.406-.763.45-1.067.069-.428.136-1.16.174-1.512.052-.53.082-1.02.105-1.37l.052-.648h1.315v4.964h1.261V14.89h-3.657l-.008-.008zm-3.011 2.338H85.75c0-.959.391-1.527 1.104-1.527.639 0 1.052.576 1.052 1.527zm1.322.966v-.273c0-1.379-.256-2.104-.766-2.579-.489-.452-1.03-.608-1.608-.608-.736 0-1.314.25-1.787.795-.51.592-.721 1.286-.721 2.322 0 1.91 1.036 3.125 2.681 3.125.789 0 1.495-.265 2.103-.787l-.503-.787c-.436.39-.909.584-1.45.584-1.149 0-1.442-.865-1.442-1.683v-.11h3.493zm-6.73-2.345h1.51l.165-.959h-4.506v.959h1.57v4.963h1.262v-4.963zm-4.7 2.174l-.023 1.41c-.248.374-.646.6-1.052.6-.51 0-.803-.327-.803-.896 0-.756.383-1.122 1.652-1.122.098 0 .233.008.233.008m1.742 2.212c-.45-.311-.518-.568-.51-1.363l.022-1.699c.007-.888.007-1.192-.098-1.449-.263-.647-.863-.99-1.78-.99-.916 0-1.607.25-2.485.81l.57.92s.901-.67 1.743-.67c.69 0 .803.359.803 1.036v.32h-.39c-1.87 0-2.892.693-2.892 2.065 0 1.028.601 1.76 1.938 1.76.623 0 1.134-.17 1.607-.708.135.374.443.654.804.794l.653-.826h.015zm-7.683-4.394h2.246l.157-.959h-3.65v5.922h1.255v-4.963h-.008zm-3.432 1.379h-2.155c0-.958.398-1.527 1.111-1.527.631 0 1.044.576 1.044 1.527zm1.322.966v-.273c0-1.379-.263-2.103-.759-2.579-.503-.452-1.036-.607-1.607-.607-.743 0-1.322.249-1.795.794-.51.592-.72 1.286-.72 2.322 0 1.91 1.036 3.125 2.688 3.125.788 0 1.487-.265 2.095-.787l-.488-.787c-.443.39-.916.584-1.457.584-1.149 0-1.442-.865-1.442-1.683v-.109h3.485zm-8.967-1.76c.248-.266.683-.6 1.261-.6.24 0 .459.054.654.264.338.35.406.99.406 1.753 0 .46 0 1.317-.511 1.785a.907.907 0 01-.646.241c-.473 0-.871-.226-1.164-.522v-2.922zm-1.344-1.489c.06.257.12.694.12 1.48v6.912l1.224-.32v-1.737c0-.218-.015-.538-.038-.803a2.183 2.183 0 001.375.499c.75 0 1.224-.312 1.502-.577.473-.467.848-1.317.848-2.61s-.398-2.08-.788-2.478a2.009 2.009 0 00-1.427-.576c-.48 0-1.112.171-1.562.709 0-.219-.038-.46-.09-.71l-1.172.211h.008zm-1.886 2.283h-2.162c0-.958.398-1.527 1.111-1.527.63 0 1.051.576 1.051 1.527zm1.315.966v-.273c0-1.379-.248-2.103-.759-2.579-.503-.452-1.029-.607-1.607-.607-.743 0-1.322.249-1.795.794-.51.592-.728 1.286-.728 2.322 0 1.91 1.036 3.125 2.688 3.125a3.13 3.13 0 002.096-.787l-.489-.787c-.443.39-.916.584-1.456.584-1.142 0-1.442-.865-1.442-1.683v-.109h3.492zm-7.87-2.345c.315 0 .645.109.878.498.233.398.3 1.138.3 1.59 0 .452-.06 1.169-.3 1.574-.233.39-.54.499-.879.499-.338 0-.646-.11-.878-.499-.21-.366-.293-1.052-.293-1.574 0-.483.052-1.184.293-1.59.232-.39.54-.498.878-.498zm1.93-4.099l-.459.25-1.817.779c-.413.18-.864.428-1.262.818-.353.358-.548.71-.706 1.177-.263.833-.278 1.737-.278 2.446 0 1.052.038 2.12.706 2.93.51.6 1.157.834 1.87.834.909 0 1.517-.39 1.908-.834.323-.39.69-1.083.69-2.244 0-1.301-.45-1.972-.653-2.229a2.098 2.098 0 00-1.667-.779c-.45 0-.819.11-1.18.367a2.045 2.045 0 00-.577.654l-.053-.016.045-.366c.045-.335.18-1.106 1.036-1.473l1.518-.638c.172-.07.39-.148.683-.28.27-.118.443-.196.653-.344l-.458-1.044v-.008zm-4.635 8.47l-.623-.857c-.45.366-.864.514-1.434.514-.766 0-1.435-.374-1.78-1.145-.21-.46-.308-1.02-.308-1.995 0-.974.135-1.628.413-2.127.346-.623.916-.974 1.6-.974.488 0 .93.14 1.367.46l.615-.873c-.473-.397-1.216-.639-1.982-.639-1.255 0-2.343.71-2.952 1.87-.353.67-.526 1.488-.526 2.447 0 1.137.308 2.127.91 2.86.63.763 1.464 1.176 2.538 1.176.856 0 1.554-.242 2.178-.717m52.555 9.864h-2.125v-.023c0-.343.045-.857.33-1.216a.959.959 0 01.766-.342c.278 0 .564.093.766.366.241.335.263.763.263 1.13v.085zm1.9 1.364v-.436c0-.803-.067-2.221-.931-3.11-.42-.436-1.081-.77-2.02-.77-.766 0-1.517.194-2.208.973-.518.6-.871 1.387-.871 2.735 0 1.348.42 2.244.939 2.79.578.6 1.411.95 2.373.95.758 0 1.75-.241 2.643-.981l-.713-1.115c-.796.663-1.472.71-1.75.71-.338 0-.736-.07-1.052-.375-.277-.265-.45-.709-.45-1.223v-.148h4.048-.008zm-10.642 2.969l1.51-2.938c.263-.506.473-.997.699-1.683a22.71 22.71 0 00-.083 2.034V34.4h1.802v-7.286l-1.87.343-1.427 2.782c-.232.444-.585 1.317-.773 1.768.045-.42.075-1.122.075-1.62v-3.273l-1.802.343V34.4h1.87zm-6.376 0v-3.102h1.878v3.102h1.81v-7.286l-1.81.343v2.54H85.75v-2.883l-1.81.343v6.943h1.81zm-4.588-4.333h-2.126v-.023c0-.343.046-.857.33-1.216a.96.96 0 01.767-.342c.278 0 .563.093.766.366.24.335.263.763.263 1.13v.085zm1.9 1.364v-.436c0-.803-.068-2.221-.931-3.11-.421-.436-1.082-.77-2.02-.77-.767 0-1.518.194-2.209.973-.518.6-.87 1.387-.87 2.735 0 1.348.42 2.244.938 2.79.578.6 1.412.95 2.373.95a4.18 4.18 0 002.644-.981l-.714-1.115c-.796.663-1.472.71-1.75.71-.338 0-.736-.07-1.051-.375-.278-.265-.45-.709-.45-1.223v-.148h4.047-.007zm-8.794 2.969h1.81v-7.107h-4.642l-.03.897c-.015.623-.022 1.06-.083 1.784a22.95 22.95 0 01-.195 1.862c-.097.514-.21.733-.278.85-.21.303-.563.444-.706.475l-.345.093.33 1.286.684-.07c.623-.055.999-.218 1.276-.46.338-.304.474-.717.571-1.083.166-.654.21-1.387.263-2.104.105-1.434.068-1.332.083-1.628l.03-.592h1.239V34.4h-.008zm-6.752-4.333H65.39v-.023c0-.343.046-.857.331-1.216a.959.959 0 01.766-.342c.278 0 .563.093.766.366.24.335.263.763.263 1.13v.085zm1.9 1.364v-.436c0-.803-.068-2.221-.931-3.11-.42-.436-1.082-.77-2.02-.77-.767 0-1.518.194-2.201.973-.526.6-.879 1.387-.879 2.735 0 1.348.42 2.244.94 2.79.577.6 1.418.95 2.372.95.766 0 1.75-.241 2.644-.981l-.714-1.115c-.796.663-1.472.71-1.75.71-.337 0-.736-.07-1.05-.375-.271-.265-.451-.709-.451-1.223v-.148h4.047-.007zm-8.78-2.836v4.496h-2.335c.353-.585.578-1.317.683-1.808.098-.413.226-1.216.256-1.722l.067-.966h1.33zm2.682 4.496h-.879v-5.805h-4.468l-.023.865c-.03.716-.21 2.088-.39 2.813-.173.732-.489 1.488-.827 2.127h-.57v3.249h1.72v-1.948h3.74v1.948h1.704v-3.25h-.007zm-8.299 1.3v-5.796h1.66l.248-1.31h-5.49v1.31h1.78v5.797h1.802zm-8.238-8.329c.998 0 1.396.702 1.562 1.029.172.366.398.95.398 2.486 0 1.535-.226 2.103-.398 2.47-.248.506-.654 1.028-1.563 1.028-.908 0-1.314-.522-1.562-1.029-.172-.366-.398-.942-.398-2.47 0-1.527.226-2.127.398-2.485.166-.327.564-1.029 1.563-1.029zm0-1.48c-1.495 0-2.426.647-2.952 1.278-.758.857-1.164 2.181-1.164 3.716 0 1.535.406 2.837 1.164 3.71.526.615 1.457 1.277 2.952 1.277 1.494 0 2.425-.654 2.95-1.278.76-.872 1.165-2.19 1.165-3.709 0-1.519-.406-2.86-1.164-3.716-.526-.631-1.457-1.278-2.951-1.278zm68.544 17.118v1.005h.18c.308 0 .511-.039.616-.117a.395.395 0 00.166-.334.501.501 0 00-.196-.406c-.127-.101-.323-.148-.616-.148h-.15zm0-1.488v.834h.165c.173 0 .308-.04.406-.117.09-.078.128-.18.128-.32a.347.347 0 00-.128-.288c-.075-.078-.21-.109-.375-.109h-.196zm-.721 3.21v-3.919h.601c.353 0 .608.023.766.07.233.062.413.18.548.343a.926.926 0 01.203.6c0 .148-.03.273-.09.405a1.252 1.252 0 01-.3.343c.232.109.39.25.503.413.112.171.165.366.165.592 0 .226-.06.42-.165.6a1.1 1.1 0 01-.436.405c-.173.102-.42.14-.728.14h-1.067v.008zm-.878-3.919v3.92h-.721V40.96l-1.442 2.462h-.624v-3.919h.729v2.54l1.464-2.54h.601-.007zm-5.393 0h2.111v.74h-.691v3.18h-.744v-3.18h-.676v-.74zm-2.027 1.036l-.519 1.356h1.029l-.51-1.356zm-.368-1.036h.728l1.472 3.92h-.758l-.301-.811h-1.569l-.308.81h-.751l1.479-3.919h.008zm-3.44 1.527h.233c.18 0 .315-.008.383-.039a.49.49 0 00.173-.124.443.443 0 00.06-.226.373.373 0 00-.173-.336c-.083-.046-.24-.077-.473-.077h-.203v.81-.008zm-.721-1.527h.766c.413 0 .721.039.909.117.18.078.323.21.435.382.113.171.166.381.166.63 0 .281-.068.507-.211.686a.976.976 0 01-.57.382c-.143.04-.391.063-.767.063v1.66h-.72v-3.92h-.008zm-2.764 0h2.088v.732h-1.367v.702h1.367v.724h-1.367V42.7h1.367v.732h-2.088v-3.927zm-3.627 0h2.756v3.92H97.4v-3.219h-1.27v3.218h-.743v-3.919zm-2.674.631c-.36 0-.653.133-.893.374-.24.257-.36.569-.36.966 0 .437.157.78.45 1.029.232.195.503.296.81.296.346 0 .64-.125.88-.382a1.35 1.35 0 00.367-.95 1.35 1.35 0 00-.367-.951 1.17 1.17 0 00-.887-.382zm.008-.732c.54 0 .999.194 1.397.6.383.405.578.888.578 1.472 0 .585-.195 1.06-.578 1.45a1.852 1.852 0 01-1.397.592 1.91 1.91 0 01-1.427-.616 2.04 2.04 0 01-.578-1.45c0-.373.097-.716.27-1.028.173-.311.42-.576.736-.748.308-.187.646-.28.999-.28m-4.484.732c-.353 0-.653.133-.886.374-.24.257-.368.57-.368.967 0 .436.15.779.45 1.028.241.195.511.296.812.296.345 0 .638-.125.879-.382.247-.257.367-.576.367-.95s-.112-.694-.367-.95a1.17 1.17 0 00-.887-.383zm.008-.732c.54 0 .999.195 1.397.6.383.405.585.888.585 1.473 0 .584-.195 1.06-.578 1.449a1.876 1.876 0 01-1.397.592 1.88 1.88 0 01-1.434-.616 2.034 2.034 0 01-.57-1.449c0-.374.082-.717.262-1.028.18-.312.42-.577.728-.748.308-.187.646-.28 1-.28m-5.1.1h.728v1.356l1.037-1.356h.879l-1.337 1.746 1.472 2.174h-.864l-1.187-1.746v1.746h-.728v-3.92zm-4.814-1.06h.578c.045.07.105.125.196.172a.773.773 0 00.292.047c.12 0 .233-.016.316-.063a.394.394 0 00.165-.155h.578a.797.797 0 01-.315.545c-.173.14-.42.21-.744.21-.21 0-.398-.03-.54-.085a.947.947 0 01-.346-.265.94.94 0 01-.172-.398m2.448 1.06v3.92h-.721v-2.463l-1.442 2.462h-.623v-3.919h.72v2.54l1.465-2.54h.608-.007zm-3.658 0v3.92h-.728v-2.463l-1.435 2.462h-.623v-3.919h.721v2.54l1.465-2.54h.608-.008zm-6.083 0h.729v1.356l1.036-1.356h.879l-1.337 1.745 1.464 2.174h-.856l-1.186-1.745v1.745h-.729v-3.919zm-.646.694l-.51.49c-.346-.373-.744-.56-1.172-.56-.368 0-.676.132-.924.39a1.311 1.311 0 00-.375.95c0 .257.06.49.165.693.113.21.27.366.473.483.203.11.436.164.676.164.21 0 .413-.04.586-.117.172-.078.368-.226.578-.444l.488.53c-.278.28-.548.475-.796.584a2.02 2.02 0 01-.864.172c-.585 0-1.081-.188-1.457-.585-.383-.382-.57-.88-.57-1.48 0-.398.09-.74.263-1.044a1.86 1.86 0 01.743-.733c.316-.187.661-.28 1.037-.28.307 0 .615.07.9.21.301.125.549.327.76.584m-5.821 1.45v1.067h.18c.308 0 .51-.039.616-.109.098-.078.158-.21.158-.397 0-.374-.27-.561-.796-.561h-.158zm-.721 1.776v-3.919h.72v1.48h.166c.3 0 .556.032.759.11.202.07.375.21.518.405.15.21.225.444.225.732 0 .265-.06.491-.18.686-.135.187-.278.327-.443.397-.173.078-.406.117-.691.117h-1.066l-.008-.008zm-1.21 0l-1.058-2.875-1.082 2.875h-.78l1.479-3.919h.743l1.472 3.92h-.78.007zM57.4 39.504h2.088v.732H58.12v.702h1.367v.724H58.12V42.7h1.367v.732H57.4v-3.927zm-2.621 0h2.118v.74h-.691v3.18h-.744v-3.18h-.683v-.74zm-.503 0v3.92h-.721V40.96l-1.435 2.462h-.623v-3.919h.72v2.54l1.465-2.54h.601-.007zm-5.092 2.143v1.067h.18c.338 0 .548-.039.638-.124a.516.516 0 00.136-.367c0-.374-.27-.576-.797-.576h-.157zm-.721 1.776v-3.919h2.005v.725H49.19v.763h.165c.316 0 .586.031.789.11.203.07.375.21.51.412.143.195.211.437.211.71 0 .272-.06.49-.15.654a1.337 1.337 0 01-.42.405c-.181.101-.436.148-.752.148h-1.066l-.015-.008zm-2.764-3.919h2.088v.732H46.42v.702h1.367v.724H46.42V42.7h1.367v.732h-2.088v-3.927zm-2.268 1.527h.24c.18 0 .308-.008.376-.039a.376.376 0 00.172-.124.417.417 0 00.06-.226.374.374 0 00-.172-.336c-.075-.046-.24-.077-.458-.077h-.21v.81l-.008-.008zm-.721-1.527h.773c.421 0 .722.039.902.117.18.078.338.21.443.382.105.179.158.381.158.63 0 .281-.068.507-.203.686-.143.188-.338.32-.578.382-.136.04-.391.063-.767.063v1.66h-.72v-3.92h-.008zm-2.606 0h2.118v.74h-.691v3.18h-.744v-3.18h-.683v-.74zm-2.298.631c-.36 0-.653.133-.894.374-.24.257-.353.569-.353.966 0 .437.15.78.45 1.029.234.195.504.296.812.296.345 0 .638-.125.879-.382a1.35 1.35 0 00.368-.95 1.35 1.35 0 00-.368-.951 1.17 1.17 0 00-.887-.382m.008-.732c.54 0 .999.194 1.397.6.383.405.578.888.578 1.472 0 .585-.195 1.06-.57 1.45a1.88 1.88 0 01-1.405.592 1.91 1.91 0 01-1.427-.616 2.034 2.034 0 01-.57-1.45c0-.373.09-.716.262-1.028.173-.311.42-.576.729-.748a1.9 1.9 0 01.998-.28m-5.43.101h2.757v3.92h-.744v-3.219H33.12v3.218h-.729v-3.919h-.007zm-4.798-1.06h.578a.56.56 0 00.18.172c.083.031.18.047.3.047s.218-.016.316-.063a.443.443 0 00.165-.155h.579a.857.857 0 01-.316.545c-.18.14-.42.21-.743.21-.218 0-.398-.03-.541-.085a1.16 1.16 0 01-.36-.265.93.93 0 01-.166-.398m2.433 1.06v3.92h-.72V40.96l-1.435 2.462h-.623v-3.919h.72v2.54l1.465-2.54h.593zm-6.57 2.143v1.067h.18c.3 0 .502-.039.608-.109.105-.078.157-.21.157-.397 0-.374-.263-.561-.788-.561h-.158zm-.722 1.776v-3.919h.721v1.48h.158c.308 0 .555.032.758.11.203.07.376.21.526.405.143.21.225.444.225.732 0 .265-.067.491-.195.686-.128.187-.27.327-.443.397-.165.078-.398.117-.683.117h-1.067v-.008zm2.914-3.919h.721v3.92h-.721v-3.92zm-6.541 0h.743v1.48h1.284v-1.48h.729v3.92h-.729V41.7h-1.284v1.722h-.743v-3.919zm-2.599 0h2.11v.74h-.69v3.18h-.744v-3.18h-.676v-.74zm-.503 0v3.92h-.729V40.96l-1.434 2.462h-.623v-3.919h.72v2.54l1.465-2.54h.608-.007zm-5.272 1.029l-.849 2.189h1.683l-.834-2.19zm-.376-1.029h.729l1.24 3.218h.42v1.286h-.706v-.585H9.38v.585h-.706v-1.286h.42l1.232-3.218h.015zm-4.017 0H8.41v.732H7.052v.702h1.36v.724h-1.36V42.7h1.36v.732H6.323v-3.927zm-2.261 1.527h.233c.18 0 .308-.008.383-.039a.395.395 0 00.165-.124.38.38 0 00.068-.226.374.374 0 00-.173-.336c-.09-.046-.24-.077-.473-.077h-.203v.81-.008zm-.729-1.527h.782c.413 0 .72.039.9.117a.95.95 0 01.436.382c.105.179.166.381.166.63 0 .281-.076.507-.21.686-.143.188-.331.32-.571.382-.143.04-.406.063-.774.063v1.66h-.729v-3.92zm-3.296-.008H.78v1.356l1.029-1.356h.886L1.36 41.241l1.465 2.174H1.96L.79 41.67v1.745H.038v-3.919z" fill="#fff"/></g><defs><clipPath id="clip0_579_5905"><path fill="#fff" d="M0 0h117v44H0z"/></clipPath></defs></svg>