<svg width="187" height="69" fill="none" xmlns="http://www.w3.org/2000/svg"><g clip-path="url(#clip0_519_5704)"><path fill-rule="evenodd" clip-rule="evenodd" d="M32.446 10.744v38.611a6.423 6.423 0 01-1.908 4.57c-.022.01-.045.044-.067.056a6.52 6.52 0 01-4.539 1.82h-.011a6.534 6.534 0 01-4.606-1.888c-.034-.011-.046-.045-.057-.057a6.415 6.415 0 01-1.851-4.5h-.012c0-.6.497-1.075 1.107-1.075s1.084.486 1.084 1.074h-.012c0 1.165.474 2.206 1.23 2.986l.057.056a4.392 4.392 0 003.06 1.256h.011a4.306 4.306 0 003.003-1.199c.034-.023.045-.045.056-.056a4.268 4.268 0 001.265-3.043v-38.61h2.19z" fill="#118938"/><path d="M30.888 0C20.242.158 10.86 5.395 5.046 13.38a32.967 32.967 0 00-2.98 5.032 30.337 30.337 0 00-2.043 5.564.26.26 0 00.022.204c.08.124.249.17.373.08.688-.42 1.716-.793 2.991-1.075.249-.057.508-.113.79-.159 1.672-.316 3.659-.497 5.792-.497h.011c2.925 0 5.555.35 7.474.882 1.016.294 1.818.622 2.337.995C20.92 15.834 24.047 5.677 30.956 0h-.068z" fill="#000"/><path d="M30.888 0C20.242.158 10.86 5.395 5.046 13.38a32.967 32.967 0 00-2.98 5.032 30.337 30.337 0 00-2.043 5.564.26.26 0 00.022.204c.08.124.249.17.373.08.688-.42 1.716-.793 2.991-1.075.249-.057.508-.113.79-.159 1.672-.316 3.659-.497 5.792-.497h.011c2.925 0 5.555.35 7.474.882 1.016.294 1.818.622 2.337.995C20.92 15.834 24.047 5.677 30.956 0h-.068z" fill="url(#paint0_radial_519_5704)"/><path d="M21.28 24.644c.452-.453 1.367-.882 2.609-1.233 4.11-1.154 10.838-1.154 14.947 0 1.253.35 2.179.769 2.63 1.244C40.497 16.128 38.273 5.553 31.375 0 24.476 5.553 22.24 16.105 21.28 24.644z" fill="#158F44"/><path d="M31.791 0c6.898 5.677 10.025 15.822 11.143 24.395.508-.362 1.298-.701 2.315-.984 1.907-.543 4.55-.882 7.473-.882 3.07 0 5.848.373 7.779.972.372.113.7.238 1.004.362.305.136.565.26.79.407a.306.306 0 00.227.046c.135-.046.237-.193.191-.328-2.495-9.444-9.212-17.202-18.04-21.138A32.657 32.657 0 0039.31.984 33.085 33.085 0 0031.791 0z" fill="#000"/><path d="M31.791 0c6.898 5.677 10.025 15.822 11.143 24.395.508-.362 1.298-.701 2.315-.984 1.907-.543 4.55-.882 7.473-.882 3.07 0 5.848.373 7.779.972.372.113.7.238 1.004.362.305.136.565.26.79.407a.306.306 0 00.227.046c.135-.046.237-.193.191-.328-2.495-9.444-9.212-17.202-18.04-21.138A32.657 32.657 0 0039.31.984 33.085 33.085 0 0031.791 0z" fill="url(#paint1_radial_519_5704)"/><path fill-rule="evenodd" clip-rule="evenodd" d="M68.2 0v12.542h1.502V1.29h5.17L74.974 0H68.2zm9.946 3.223c1.05 0 2.213.453 2.913 1.29.745.86 1.05 2.228 1.05 3.483 0 1.504-.384 2.703-1.05 3.483-.711.86-1.852 1.3-2.913 1.3-1.061 0-2.201-.44-2.924-1.3-.666-.769-1.05-1.979-1.05-3.483 0-1.255.316-2.624 1.05-3.483.7-.826 1.863-1.29 2.924-1.29zm0 1.176c-1.14 0-1.704.702-1.942 1.143-.146.271-.429.916-.429 2.443 0 1.526.271 2.182.43 2.465.237.441.801 1.142 1.941 1.142 1.14 0 1.694-.7 1.93-1.142.148-.271.43-.916.43-2.465 0-1.55-.271-2.172-.43-2.443-.236-.441-.79-1.143-1.93-1.143zm5.114-.938c.147.588.204 1.13.204 1.968v10.913l1.433-.26v-4.365c.757.769 1.784 1.052 2.54 1.052 1.434 0 2.371-.917 2.846-1.64.677-1.063.733-2.319.733-3.156 0-1.538-.293-2.68-1.005-3.574a2.996 2.996 0 00-2.45-1.176c-.925 0-1.986.396-2.72 1.369 0-.475-.045-.928-.102-1.38l-1.479.249zm1.637 2.363c.633-.86 1.57-1.311 2.462-1.311 1.117 0 1.523.7 1.693 1.051.248.498.429 1.29.429 2.76 0 .328-.011 1.391-.384 2.137-.35.69-1.072 1.131-1.93 1.131-.96 0-1.784-.633-2.258-1.187V5.813l-.012.011zm11.256-2.6c-1.05 0-2.201.452-2.913 1.289-.745.86-1.06 2.228-1.06 3.483 0 1.504.383 2.703 1.06 3.483.723.86 1.852 1.3 2.913 1.3 1.061 0 2.19-.44 2.924-1.3.666-.769 1.05-1.979 1.05-3.483 0-1.255-.316-2.624-1.05-3.483-.7-.826-1.874-1.29-2.924-1.29zm0 1.175c1.14 0 1.693.702 1.942 1.143.135.271.418.916.418 2.443 0 1.526-.271 2.182-.418 2.465-.249.441-.802 1.142-1.942 1.142s-1.693-.7-1.93-1.142c-.147-.271-.43-.916-.43-2.465 0-1.55.271-2.172.43-2.443.237-.441.79-1.143 1.93-1.143zm12.904 7.058h-1.14V3.438h-5.16l-.045 1.685c-.056 2.488-.508 4.468-1.546 6.334h-.678v3.698h1.411v-2.613h5.769v2.613h1.389v-3.698zm-2.574-6.922v6.922h-3.929c1.016-2.059 1.321-4.004 1.411-5.599l.057-1.323h2.472-.011zm9.077 6.096c-.181.226-.395.441-.644.577a2.37 2.37 0 01-1.321.407c-.519 0-1.208-.136-1.693-.826-.486-.723-.553-1.685-.553-2.488 0-1.436.192-2.454.677-3.087.542-.701 1.265-.758 1.626-.758.271 0 .948.023 1.682.735l.79-.995c-.926-.86-1.874-.984-2.483-.984-.734 0-1.615.18-2.439.973-.813.746-1.456 1.99-1.456 3.97 0 1.48.361 2.487.88 3.234.576.792 1.411 1.39 2.879 1.39.666 0 1.185-.112 1.581-.293.496-.215.959-.61 1.287-.939l-.802-.916h-.011zm1.874 1.923h1.434V8.369h1.433c.226 0 .508-.011.847.272.294.271.373.542.429.916l.237 1.368c.102.509.203.882.429 1.176.328.419.858.52 1.186.554l.993.068.237-.893-.339-.113c-.327-.113-.474-.136-.541-.193-.226-.135-.328-.418-.384-.61l-.486-1.73c-.079-.351-.203-.668-.496-.985a1.368 1.368 0 00-.588-.384v-.057c.249-.079.52-.248.689-.44.271-.295.35-.645.429-.917l.384-1.368c.011-.102.113-.35.271-.51a.83.83 0 01.395-.203l.553-.124-.248-.916-.813.068c-.644.056-.948.26-1.118.44-.225.238-.35.611-.417.95l-.271 1.38c-.113.566-.35.792-.418.871-.237.238-.452.272-.824.272h-1.558V3.235l-1.434.271v9.036l-.011.012zm11.436-9.32c-1.05 0-2.201.453-2.913 1.29-.745.86-1.05 2.228-1.05 3.483 0 1.504.384 2.703 1.05 3.484.723.86 1.852 1.3 2.913 1.3 1.061 0 2.213-.44 2.924-1.3.666-.77 1.05-1.98 1.05-3.484 0-1.255-.316-2.624-1.05-3.483-.7-.826-1.863-1.29-2.924-1.29zm0 1.177c1.14 0 1.694.701 1.942 1.142.147.271.429.916.429 2.443 0 1.527-.271 2.183-.429 2.465-.248.441-.802 1.143-1.942 1.143s-1.693-.701-1.93-1.143c-.147-.271-.429-.916-.429-2.465 0-1.55.271-2.172.429-2.443.237-.441.79-1.142 1.93-1.142zm12.554 3.856v-.226c0-1.255-.113-1.968-.26-2.477-.056-.147-.271-.87-.79-1.38-.485-.497-1.366-.95-2.495-.95-1.434 0-2.359.724-2.924 1.46-.79 1.063-.937 2.261-.937 3.223 0 1.255.192 2.488 1.095 3.562.52.611 1.411 1.3 2.992 1.3a4.73 4.73 0 003.105-1.164l-.554-.916a3.27 3.27 0 01-2.258.87c-1.004 0-1.862-.429-2.291-1.119-.418-.678-.418-1.504-.418-1.99v-.204h5.735v.011zm-5.735-1.097c-.023-.622.135-1.447.463-1.956.361-.554.869-.882 1.659-.882.791 0 1.378.384 1.66.814.327.509.44 1.481.429 2.036h-4.211V7.17zM77.175 31.543l-.993-1.346c-.711.565-1.377.803-2.292.803-1.23 0-2.292-.577-2.845-1.787-.327-.724-.497-1.584-.497-3.11 0-1.527.215-2.545.666-3.314.554-.973 1.457-1.527 2.552-1.527.79 0 1.49.226 2.179.724l.982-1.369c-.757-.622-1.942-.995-3.172-.995-1.999 0-3.749 1.108-4.72 2.918-.564 1.052-.835 2.319-.835 3.811 0 1.787.497 3.314 1.445 4.468 1.005 1.187 2.348 1.832 4.053 1.832 1.366 0 2.484-.373 3.477-1.12m7.406-13.22l-.734.384-2.912 1.21a6.404 6.404 0 00-2.01 1.267c-.564.565-.88 1.108-1.129 1.832-.418 1.3-.44 2.703-.44 3.811 0 1.64.056 3.302 1.129 4.57.813.938 1.851 1.3 2.992 1.3 1.445 0 2.427-.611 3.048-1.3.508-.612 1.106-1.686 1.106-3.495 0-2.025-.722-3.077-1.05-3.484-.508-.577-1.332-1.21-2.664-1.21-.723 0-1.31.17-1.886.566-.395.293-.7.633-.925 1.017l-.08-.022.069-.566c.067-.52.293-1.73 1.648-2.296l2.427-.995c.282-.113.621-.237 1.095-.441.43-.18.7-.305 1.05-.543l-.734-1.628v.022zm-3.093 6.4c.508 0 1.038.17 1.411.77.373.621.486 1.786.486 2.488 0 .7-.102 1.82-.486 2.454-.373.61-.87.769-1.411.769-.508 0-1.039-.17-1.411-.77-.328-.565-.463-1.64-.463-2.453 0-.758.079-1.855.463-2.489.372-.61.869-.768 1.41-.768zm12.576 3.665v-.43c0-2.16-.395-3.291-1.207-4.015-.802-.701-1.638-.95-2.563-.95-1.186 0-2.111.385-2.868 1.244-.813.927-1.163 2.002-1.163 3.62 0 2.985 1.66 4.874 4.302 4.874 1.253 0 2.37-.419 3.353-1.233l-.79-1.233c-.7.61-1.468.916-2.338.916-1.817 0-2.303-1.357-2.303-2.624v-.17h5.577zm-2.1-1.504H88.5c0-1.493.632-2.387 1.784-2.387 1.004 0 1.682.894 1.682 2.387zm3.004-3.563c.101.396.191 1.075.191 2.307v10.79l1.965-.498v-2.703c0-.35-.023-.837-.056-1.255.88.678 1.727.769 2.19.769 1.196 0 1.964-.487 2.404-.894.757-.735 1.355-2.058 1.355-4.071s-.632-3.246-1.253-3.868a3.207 3.207 0 00-2.27-.894c-.767 0-1.783.26-2.494 1.109 0-.35-.057-.724-.136-1.109l-1.874.328-.022-.01zm2.156 2.319c.395-.419 1.084-.94 2.01-.94.383 0 .733.08 1.049.42.542.553.644 1.549.644 2.736 0 .724 0 2.059-.813 2.794-.305.26-.632.373-1.039.373-.756 0-1.388-.362-1.862-.814v-4.558l.01-.011zm14.326 2.748v-.43c0-2.16-.417-3.291-1.208-4.015-.801-.701-1.659-.95-2.562-.95-1.186 0-2.112.385-2.868 1.244-.813.927-1.163 2.002-1.163 3.62 0 2.985 1.66 4.874 4.302 4.874 1.253 0 2.37-.419 3.353-1.233l-.791-1.233c-.7.61-1.456.916-2.337.916-1.829 0-2.303-1.357-2.303-2.624v-.17h5.577zm-2.111-1.504h-3.443c0-1.493.632-2.387 1.784-2.387 1.004 0 1.67.894 1.67 2.387m5.487-2.16h3.59l.249-1.493h-5.837v9.24h1.998V24.71zm12.272 6.853c-.711-.486-.824-.882-.813-2.126l.045-2.658c.012-1.38.012-1.866-.147-2.262-.417-1.006-1.377-1.55-2.844-1.55-1.468 0-2.563.385-3.974 1.267l.914 1.437s1.434-1.052 2.789-1.052c1.106 0 1.287.566 1.287 1.617v.498h-.621c-2.992 0-4.618 1.074-4.618 3.223 0 1.606.96 2.748 3.105 2.748.993 0 1.806-.26 2.563-1.108.225.577.7 1.018 1.287 1.244l1.05-1.29-.023.012zm-2.789-3.45l-.045 2.195c-.395.577-1.038.938-1.682.938-.813 0-1.287-.509-1.287-1.39 0-1.177.61-1.754 2.631-1.754.146 0 .372.012.372.012m7.519-3.404h2.416l.26-1.493h-7.203v1.492h2.506v7.748h2.01V24.71h.011zm10.759 3.664v-.43c0-2.16-.418-3.291-1.231-4.015-.79-.701-1.637-.95-2.562-.95-1.174 0-2.1.385-2.857 1.244-.812.927-1.162 2.002-1.162 3.62 0 2.985 1.648 4.874 4.29 4.874 1.253 0 2.382-.419 3.364-1.233l-.802-1.233c-.688.61-1.445.916-2.314.916-1.829 0-2.303-1.357-2.303-2.624v-.17h5.577zm-2.111-1.504h-3.444c0-1.493.621-2.387 1.762-2.387 1.016 0 1.682.894 1.682 2.387zm4.809-3.642l-.113 1.73c-.079 1.131-.113 1.799-.248 3.031-.113 1.131-.124 2.194-.678 2.737-.225.215-.609.396-.914.486l-.395.08.395 1.38.497-.057c.564-.057 1.366-.147 1.942-.701.496-.487.643-1.188.711-1.674.113-.667.226-1.81.271-2.364.079-.825.135-1.583.169-2.137l.079-1.007h2.1v7.747h2.01v-9.24h-5.848l.022-.011zm7.508.17v9.081h3.522c1.129 0 2.111-.17 2.777-.848.361-.362.711-.984.711-2.013 0-.554-.079-1.391-.745-2.07-.869-.882-2.156-.893-2.912-.893h-1.333v-3.63l-2.009.384-.011-.012zm2.009 4.67h1.107c.429 0 .982.046 1.366.396.361.328.383.826.383 1.12 0 .294-.022.735-.372 1.063-.361.362-.915.396-1.321.396h-1.163v-2.986.011zm8.479.25h3.161v4.161h1.998v-9.466l-1.998.384v3.416h-3.161v-3.8l-2.01.384v9.082h2.01V28.32zm14.699-.442c0-2.929-1.513-4.886-4.178-4.886-2.472 0-4.064 1.912-4.064 4.863 0 2.952 1.581 4.875 4.11 4.875 2.529 0 4.143-1.855 4.143-4.852m-2.258.012c0 2.363-.666 3.325-1.863 3.325-1.196 0-1.874-.792-1.874-3.506 0-2.251.553-3.224 1.818-3.224 1.185 0 1.919.792 1.919 3.405zm11.256.497v-.43c0-2.16-.395-3.29-1.208-4.015-.802-.7-1.637-.95-2.563-.95-1.185 0-2.111.385-2.868 1.244-.801.928-1.162 2.002-1.162 3.62 0 2.985 1.67 4.874 4.301 4.874 1.253 0 2.382-.418 3.353-1.233l-.79-1.232c-.7.61-1.457.916-2.326.916-1.818 0-2.303-1.358-2.303-2.624v-.17h5.566zm-2.1-1.504h-3.466c0-1.493.632-2.386 1.784-2.386 1.004 0 1.682.893 1.682 2.386zM74.77 38.385c-2.381 0-3.872 1.006-4.718 1.99-1.208 1.335-1.863 3.393-1.863 5.802s.643 4.422 1.863 5.79c.846.962 2.325 1.991 4.719 1.991 2.393 0 3.872-1.018 4.719-1.99 1.208-1.369 1.862-3.416 1.862-5.79 0-2.376-.643-4.457-1.862-5.803-.847-.984-2.326-1.99-4.72-1.99zm0 2.307c1.604 0 2.236 1.097 2.496 1.606.27.565.632 1.481.632 3.88 0 2.397-.361 3.29-.632 3.856-.395.791-1.05 1.606-2.495 1.606s-2.1-.815-2.495-1.606c-.283-.566-.633-1.482-.633-3.857s.362-3.314.633-3.88c.26-.508.892-1.605 2.495-1.605zm13.175 13.006V44.65H90.6l.395-2.047h-8.772v2.047h2.845v9.048h2.879zm13.266-2.036v5.067h-2.732v-3.042h-5.972v3.042h-2.744v-5.067h.915c.541-.995 1.05-2.171 1.32-3.313.294-1.131.576-3.269.621-4.389l.046-1.357h7.146v9.06h1.4zm-4.29-7.023h-2.123l-.113 1.504c-.056.803-.26 2.047-.417 2.692-.17.758-.52 1.911-1.084 2.816h3.737v-7.023.011zm14.021 4.422v-.678c0-1.256-.113-3.473-1.49-4.852-.677-.679-1.727-1.2-3.229-1.2-1.23 0-2.427.306-3.522 1.516-.835.939-1.411 2.172-1.411 4.264s.677 3.495 1.501 4.354c.926.939 2.258 1.482 3.794 1.482a6.68 6.68 0 004.222-1.538l-1.14-1.742c-1.265 1.04-2.36 1.108-2.8 1.108-.542 0-1.174-.113-1.682-.576-.429-.419-.723-1.109-.723-1.912v-.237h6.469l.011.011zm-3.037-2.126h-3.398v-.045c0-.543.068-1.335.52-1.89.293-.338.7-.542 1.23-.542.44 0 .892.158 1.231.566.384.52.417 1.187.417 1.764v.146zm10.782 6.752h2.901V42.592h-7.417l-.045 1.391a43.91 43.91 0 01-.135 2.794c-.057.882-.192 2.205-.317 2.906-.146.803-.327 1.142-.44 1.323-.327.475-.892.69-1.129.747l-.553.158.519 2.002 1.095-.113c.994-.08 1.603-.35 2.044-.724.542-.464.756-1.12.914-1.685.26-1.018.328-2.172.418-3.291.169-2.24.113-2.081.135-2.545l.046-.927h1.987v9.047l-.023.012zm14.055-4.626v-.678c0-1.256-.112-3.473-1.49-4.852-.677-.679-1.727-1.2-3.229-1.2-1.23 0-2.427.306-3.533 1.516-.824.939-1.389 2.172-1.389 4.264s.678 3.495 1.502 4.354c.925.939 2.258 1.482 3.793 1.482 1.219 0 2.8-.373 4.222-1.538l-1.14-1.742c-1.264 1.04-2.359 1.108-2.8 1.108-.542 0-1.174-.113-1.682-.576-.44-.419-.711-1.109-.711-1.912v-.237h6.469l-.012.011zm-3.036-2.126h-3.399v-.045c0-.543.068-1.335.52-1.89.293-.338.7-.542 1.23-.542.441 0 .892.158 1.231.566.384.52.418 1.187.418 1.764v.146zm7.338 6.752v-4.84h3.003v4.84h2.901V42.32l-2.901.542v3.97h-3.003v-4.501l-2.902.543v10.834h2.902v-.022zm10.194 0l2.416-4.592c.418-.792.757-1.56 1.118-2.624a33.03 33.03 0 00-.136 3.178v4.038h2.879V42.32l-2.992.542-2.28 4.343c-.373.69-.937 2.059-1.242 2.76.068-.667.124-1.753.124-2.534V42.32l-2.879.542v10.835h2.992v-.011zm17.002-4.626v-.678c0-1.256-.113-3.473-1.49-4.852-.677-.679-1.727-1.2-3.229-1.2-1.23 0-2.427.306-3.533 1.516-.825.939-1.389 2.172-1.389 4.264s.677 3.495 1.502 4.354c.925.939 2.257 1.482 3.793 1.482 1.219 0 2.8-.373 4.222-1.538l-1.14-1.742c-1.265 1.04-2.36 1.108-2.8 1.108-.542 0-1.174-.113-1.682-.576-.44-.419-.711-1.109-.711-1.912v-.237h6.469l-.012.011zm-3.037-2.126h-3.398v-.045c0-.543.068-1.335.52-1.89.293-.338.7-.542 1.23-.542.44 0 .892.158 1.231.566.384.52.417 1.187.417 1.764v.146zM.056 61.977h1.186v2.115l1.648-2.115h1.411l-2.133 2.726 2.337 3.392h-1.39L1.243 65.37v2.725H.056v-6.118zm5.261 0H6.56c.666 0 1.152.056 1.445.18.294.125.52.329.689.6.17.272.26.6.26.984 0 .43-.125.792-.34 1.063a1.624 1.624 0 01-.902.6c-.237.056-.644.09-1.23.09v2.59H5.316v-6.118.01zm1.163 2.386h.373c.293 0 .497-.011.61-.056a.528.528 0 00.26-.204.524.524 0 00.112-.35c0-.227-.09-.419-.271-.52-.135-.08-.384-.125-.756-.125H6.48v1.267-.012zm3.613-2.386h3.342v1.142h-2.168v1.097h2.168v1.12h-2.168v1.617h2.168v1.142h-3.342v-6.118zm6.412 0h1.174l1.987 5.021h.678V69h-1.118v-.905h-4.233V69h-1.13v-2.002h.678l1.964-5.021zm.599 1.606l-1.355 3.415h2.687l-1.332-3.415zm8.433-1.606v6.118h-1.174v-3.834l-2.292 3.834h-.993v-6.118h1.151v3.958l2.337-3.958h.971zm.802 0h3.364v1.154h-1.107v4.964h-1.185V63.13h-1.073v-1.153zm4.154 0h1.186v2.307h2.043v-2.307h1.174v6.118h-1.174v-2.68h-2.044v2.68h-1.185v-6.118zm10.466 0h1.151v6.118h-1.151v-6.118zm-4.663 6.118v-6.118h1.151v2.307h.249c.497 0 .892.045 1.22.17.327.113.597.328.846.633.226.328.35.69.35 1.142a1.9 1.9 0 01-.305 1.063c-.203.294-.43.51-.711.611-.26.124-.632.181-1.095.181h-1.705v.011zm1.151-2.77v1.662h.294c.474 0 .801-.056.97-.17.17-.124.25-.328.25-.622 0-.588-.419-.882-1.265-.882h-.249v.011zm10.511-3.348v6.118h-1.151v-3.834l-2.292 3.834H43.51v-6.118h1.151v3.958l2.337-3.958h.96zm-3.895-1.651h.926c.079.113.17.203.293.26a1.485 1.485 0 00.983-.011.67.67 0 00.26-.25h.925a1.335 1.335 0 01-.508.849c-.294.215-.677.328-1.185.328-.35 0-.633-.045-.858-.136a1.795 1.795 0 01-.565-.418 1.23 1.23 0 01-.26-.611m7.677 1.651h4.403v6.119H54.97v-5.022h-2.044v5.022h-1.162v-6.119h-.012zm8.67-.158c.859 0 1.604.305 2.236.939.61.633.926 1.39.926 2.295s-.305 1.652-.903 2.262c-.61.622-1.367.928-2.247.928-.88 0-1.682-.328-2.28-.95-.61-.634-.904-1.391-.904-2.262a3.1 3.1 0 01.418-1.606 3.09 3.09 0 011.174-1.176 3.073 3.073 0 011.603-.43m-.011 1.142c-.565 0-1.05.204-1.434.588-.384.396-.564.894-.564 1.516 0 .678.248 1.221.722 1.606.373.305.802.463 1.299.463.553 0 1.016-.203 1.4-.599a2.06 2.06 0 00.587-1.482c0-.588-.204-1.074-.588-1.481a1.9 1.9 0 00-1.41-.6m3.68-.983h3.386v1.153h-1.106v4.965H65.22v-4.965h-1.095V62zm4.165 0h1.231c.677 0 1.152.056 1.445.18.294.125.542.328.711.6.17.271.249.6.249.984 0 .43-.113.791-.328 1.063a1.685 1.685 0 01-.925.6c-.215.056-.633.09-1.231.09v2.59h-1.151v-6.119V62zm1.152 2.386h.384c.293 0 .497-.011.598-.057a.51.51 0 00.271-.203.58.58 0 00.09-.35c0-.227-.09-.42-.27-.521-.125-.08-.384-.125-.734-.125h-.339v1.267-.011zM73.077 62h3.342v1.142h-2.19v1.097h2.19v1.12h-2.19v1.617h2.19v1.142h-3.342V62zm4.414 6.118V62h3.195v1.12h-2.043v1.187h.26c.508 0 .937.045 1.264.17.328.112.598.327.813.644.237.305.339.678.339 1.108 0 .43-.09.77-.249 1.018a2.03 2.03 0 01-.677.633c-.294.159-.689.227-1.197.227h-1.705v.011zm1.152-2.77v1.662h.293c.542 0 .881-.057 1.017-.204a.778.778 0 00.214-.565c0-.588-.429-.894-1.276-.894h-.248zm8.14-3.349v6.119H85.63v-3.834l-2.292 3.834h-1.004V62h1.151v3.958l2.337-3.959h.96zm.801 0h3.387v1.154h-1.106v4.965h-1.186v-4.965h-1.095V62zm4.189 0h3.341v1.143h-2.19v1.097h2.19v1.12h-2.19v1.617h2.19v1.142h-3.341V62zm8.388 6.119l-1.694-4.479-1.727 4.479h-1.242L97.87 62h1.186l2.348 6.118h-1.242zm1.942 0V62h1.151v2.307h.26c.474 0 .892.045 1.219.17.328.112.598.327.836.633.248.328.35.69.35 1.142 0 .418-.091.769-.294 1.063-.215.294-.452.509-.711.61-.271.125-.644.182-1.107.182h-1.704v.011zm1.151-2.77v1.662h.294c.496 0 .813-.057.982-.17.158-.124.248-.328.248-.622 0-.588-.429-.882-1.275-.882h-.249v.011zm9.303-2.263l-.813.77c-.553-.589-1.185-.883-1.874-.883-.587 0-1.073.204-1.479.6-.407.395-.598.893-.598 1.481 0 .396.09.77.259 1.075.181.328.429.565.757.757.327.17.688.26 1.083.26.339 0 .667-.056.937-.18.271-.125.588-.351.926-.69l.779.837c-.44.43-.88.735-1.276.904-.395.181-.858.26-1.388.26-.937 0-1.727-.294-2.326-.904-.609-.6-.903-1.369-.903-2.308 0-.61.136-1.153.418-1.628.259-.475.666-.848 1.185-1.142a3.245 3.245 0 011.66-.43c.496 0 .982.113 1.445.328.474.203.88.509 1.219.904m1.027-1.074h1.175v2.115l1.659-2.115h1.4l-2.134 2.726 2.337 3.393h-1.366l-1.896-2.726v2.726h-1.175v-6.119zm9.721 0v6.119h-1.174v-3.834l-2.292 3.834h-1.005v-6.119h1.152v3.959l2.337-3.959h.982zm5.848 0v6.119h-1.152v-3.834l-2.303 3.834h-.993v-6.119h1.151v3.959l2.337-3.959h.971-.011zm-3.907-1.651h.926a.69.69 0 00.305.26 1.416 1.416 0 00.971-.011c.113-.045.181-.125.26-.25h.925a1.206 1.206 0 01-.508.85c-.271.214-.677.327-1.185.327-.339 0-.632-.045-.858-.136a1.62 1.62 0 01-.553-.418 1.52 1.52 0 01-.283-.61m7.689 1.65h1.174v2.115l1.659-2.115h1.4l-2.133 2.726 2.348 3.393h-1.389l-1.896-2.726v2.726h-1.175v-6.119h.012zm8.151-.158c.858 0 1.603.306 2.235.939.61.633.937 1.39.937 2.296 0 .904-.305 1.65-.926 2.262a3.04 3.04 0 01-2.235.927c-.926 0-1.693-.328-2.292-.95-.621-.633-.903-1.391-.903-2.262 0-.588.136-1.13.418-1.606a3.163 3.163 0 011.174-1.176 3.072 3.072 0 011.603-.43m-.011 1.142c-.565 0-1.05.204-1.411.588-.384.396-.588.894-.588 1.516 0 .678.249 1.221.723 1.606a2.03 2.03 0 001.298.464c.554 0 1.016-.204 1.4-.6.395-.396.587-.893.587-1.481 0-.588-.18-1.075-.587-1.482a1.901 1.901 0 00-1.411-.6m7.169-1.142a3 3 0 012.224.94c.621.632.926 1.39.926 2.295s-.305 1.651-.926 2.262c-.598.622-1.355.927-2.224.927a3.129 3.129 0 01-2.281-.95c-.609-.633-.925-1.39-.925-2.262 0-.588.158-1.13.429-1.606a3.011 3.011 0 011.174-1.176 3.072 3.072 0 011.603-.43zm-.011 1.143c-.565 0-1.05.203-1.434.588-.384.396-.565.893-.565 1.515 0 .679.249 1.222.723 1.606a1.98 1.98 0 001.298.464c.553 0 1.016-.204 1.4-.6.384-.395.587-.893.587-1.481 0-.588-.203-1.075-.587-1.482a1.901 1.901 0 00-1.411-.599m4.279-.984h4.403v6.119h-1.186v-5.022h-2.032v5.022h-1.185v-6.119zm5.802 0h3.342v1.142h-2.179v1.097h2.179v1.12h-2.179v1.617h2.179v1.143h-3.342v-6.119zm4.415 0h1.23c.666 0 1.152.057 1.445.181.294.124.52.328.689.6.169.27.26.599.26.983 0 .43-.113.792-.339 1.063a1.59 1.59 0 01-.903.6c-.226.056-.632.09-1.231.09v2.59h-1.151v-6.118.011zm1.151 2.386h.373c.293 0 .508-.01.621-.056a.695.695 0 00.271-.204.677.677 0 00.09-.35c0-.227-.09-.419-.271-.52-.135-.08-.384-.125-.756-.125h-.328v1.267-.012zm5.487-2.386h1.174l2.348 6.119h-1.219l-.474-1.267h-2.506l-.497 1.267h-1.197l2.371-6.119zm.587 1.617l-.835 2.115h1.648l-.813-2.115zm3.251-1.617h3.365v1.154h-1.107v4.965h-1.185V63.21h-1.073v-1.154zm8.614 0v6.119h-1.151V64.34l-2.303 3.834h-1.005v-6.119h1.174v3.958l2.337-3.958h.96-.012zm1.4 6.119v-6.119h.96c.564 0 .971.034 1.23.113.373.09.666.272.881.543.214.26.327.566.327.939 0 .226-.045.43-.135.633-.113.181-.26.373-.474.543.372.17.632.384.801.645.181.26.26.565.26.927 0 .362-.09.667-.26.939a1.67 1.67 0 01-.688.633c-.271.158-.678.215-1.175.215h-1.704l-.023-.011zm1.152-5.01v1.289h.259c.271 0 .497-.057.644-.181a.61.61 0 00.203-.487c0-.18-.056-.339-.203-.452-.124-.124-.339-.17-.598-.17h-.305zm0 2.33v1.571h.293c.497 0 .813-.056.982-.18a.608.608 0 00.26-.521.8.8 0 00-.305-.633c-.203-.159-.519-.238-.982-.238h-.248z" fill="#118938"/></g><defs><radialGradient id="paint0_radial_519_5704" cx="0" cy="0" r="1" gradientUnits="userSpaceOnUse" gradientTransform="matrix(15.4725 0 0 12.2031 29.37 5.204)"><stop stop-color="#AFCA0B"/><stop offset="1" stop-color="#118938"/></radialGradient><radialGradient id="paint1_radial_519_5704" cx="0" cy="0" r="1" gradientUnits="userSpaceOnUse" gradientTransform="matrix(15.4552 0 0 12.2031 35.255 -.745)"><stop stop-color="#FFED00"/><stop offset="1" stop-color="#F7A600"/></radialGradient><clipPath id="clip0_519_5704"><path fill="#fff" d="M0 0h187v69H0z"/></clipPath></defs></svg>